/* XPM */
static char * guake_indicator_xpm[] = {
"32 32 568 2",
"  	c None",
". 	c #282828",
"+ 	c #262626",
"@ 	c #3C3C3C",
"# 	c #3C3B3C",
"$ 	c #3B3A3B",
"% 	c #3C3B3B",
"& 	c #3B3B3B",
"* 	c #6C7970",
"= 	c #738478",
"- 	c #738377",
"; 	c #728377",
"> 	c #718377",
", 	c #718277",
"' 	c #718276",
") 	c #718376",
"! 	c #708276",
"~ 	c #708275",
"{ 	c #6F8175",
"] 	c #6E8174",
"^ 	c #6E8074",
"/ 	c #6D8174",
"( 	c #6E8073",
"_ 	c #6C8073",
": 	c #6D8072",
"< 	c #6C8072",
"[ 	c #6C7F71",
"} 	c #6B7F71",
"| 	c #6B7F72",
"1 	c #637468",
"2 	c #9DC3A9",
"3 	c #A6D0B3",
"4 	c #A5CFB1",
"5 	c #A4CFB0",
"6 	c #A3CEB0",
"7 	c #A3CEAF",
"8 	c #A1CDAF",
"9 	c #A1CDAE",
"0 	c #A0CCAD",
"a 	c #A0CCAC",
"b 	c #9ECBAC",
"c 	c #9ECBAB",
"d 	c #9DCBAB",
"e 	c #9DCAAA",
"f 	c #9BCAA9",
"g 	c #9AC9A8",
"h 	c #9AC9A7",
"i 	c #99C8A6",
"j 	c #98C8A6",
"k 	c #97C7A5",
"l 	c #96C7A5",
"m 	c #96C6A4",
"n 	c #95C6A4",
"o 	c #94C6A3",
"p 	c #94C5A2",
"q 	c #92C5A1",
"r 	c #92C3A1",
"s 	c #92C4A0",
"t 	c #87B694",
"u 	c #92B59C",
"v 	c #9AC3A6",
"w 	c #99C1A5",
"x 	c #99C2A4",
"y 	c #98C1A4",
"z 	c #97C1A4",
"A 	c #97BFA3",
"B 	c #95C0A2",
"C 	c #94BFA1",
"D 	c #94BEA1",
"E 	c #93BEA0",
"F 	c #92BDA0",
"G 	c #92BE9F",
"H 	c #91BD9E",
"I 	c #90BC9D",
"J 	c #8FBC9C",
"K 	c #8EBB9C",
"L 	c #8EBB9B",
"M 	c #8DBA9A",
"N 	c #8CBA9A",
"O 	c #8BB999",
"P 	c #8BB998",
"Q 	c #8AB898",
"R 	c #89B897",
"S 	c #88B896",
"T 	c #88B696",
"U 	c #87B795",
"V 	c #7CA889",
"W 	c #8BAF95",
"X 	c #94BCA0",
"Y 	c #92BC9F",
"Z 	c #92BB9E",
"` 	c #91BB9D",
" .	c #90BA9C",
"..	c #8FBA9C",
"+.	c #8FB89B",
"@.	c #8EB99B",
"#.	c #8DB899",
"$.	c #8CB799",
"%.	c #8CB798",
"&.	c #8BB698",
"*.	c #8AB797",
"=.	c #8BB696",
"-.	c #90BA96",
";.	c #90B996",
">.	c #8FB995",
",.	c #8FB894",
"'.	c #8EB894",
").	c #8DB893",
"!.	c #8DB892",
"~.	c #8CB792",
"{.	c #8BB791",
"].	c #86B391",
"^.	c #80B08F",
"/.	c #80B08E",
"(.	c #80AF8E",
"_.	c #81B18F",
":.	c #76A182",
"<.	c #85A990",
"[.	c #8EB699",
"}.	c #8DB597",
"|.	c #8BB497",
"1.	c #8AB396",
"2.	c #89B395",
"3.	c #88B395",
"4.	c #88B294",
"5.	c #87B293",
"6.	c #86B192",
"7.	c #85B092",
"8.	c #85B091",
"9.	c #82AE90",
"0.	c #ACC897",
"a.	c #F1F3A8",
"b.	c #EFF2B0",
"c.	c #EFF2AF",
"d.	c #EEF1AF",
"e.	c #EEF1AE",
"f.	c #EDF1AE",
"g.	c #EDF1AB",
"h.	c #B6CE96",
"i.	c #78A888",
"j.	c #7CAB89",
"k.	c #77A885",
"l.	c #6DA27C",
"m.	c #5B8D6A",
"n.	c #7EA389",
"o.	c #86AF92",
"p.	c #85AE91",
"q.	c #84AD90",
"r.	c #83AD8F",
"s.	c #83AC8F",
"t.	c #82AC8E",
"u.	c #81AB8D",
"v.	c #80AB8D",
"w.	c #80AA8C",
"x.	c #7FAA8B",
"y.	c #7EA98B",
"z.	c #7DA98A",
"A.	c #7AA789",
"B.	c #B7CD90",
"C.	c #FEFDD3",
"D.	c #D9E6E4",
"E.	c #D9E6E1",
"F.	c #DAE7E3",
"G.	c #DDE8E5",
"H.	c #DEE9E7",
"I.	c #E0EAE9",
"J.	c #DFEAE8",
"K.	c #F6F8EC",
"L.	c #C1D397",
"M.	c #59916C",
"N.	c #538D63",
"O.	c #4D895D",
"P.	c #477C55",
"Q.	c #779C82",
"R.	c #7FA88B",
"S.	c #7FA789",
"T.	c #7DA689",
"U.	c #7CA688",
"V.	c #7CA587",
"W.	c #7BA586",
"X.	c #7AA486",
"Y.	c #7AA485",
"Z.	c #78A384",
"`.	c #77A283",
" +	c #76A282",
".+	c #749F81",
"++	c #B2C88C",
"@+	c #F8F9CB",
"#+	c #B0C9B8",
"$+	c #AFC8B6",
"%+	c #B3CBB9",
"&+	c #B6CDBD",
"*+	c #B7CEBE",
"=+	c #B4CCBA",
"-+	c #B0C9B6",
";+	c #E3EBD7",
">+	c #B4CA8B",
",+	c #437F58",
"'+	c #4B855A",
")+	c #4B845B",
"!+	c #4C865B",
"~+	c #457852",
"{+	c #70957B",
"]+	c #78A083",
"^+	c #779F82",
"/+	c #769F81",
"(+	c #759E80",
"_+	c #749E80",
":+	c #739D7F",
"<+	c #739C7E",
"[+	c #729C7D",
"}+	c #719B7D",
"|+	c #709B7C",
"1+	c #6F9A7B",
"2+	c #6F997A",
"3+	c #6C9879",
"4+	c #AEC488",
"5+	c #F7F8CA",
"6+	c #A9C2B2",
"7+	c #A6C0AD",
"8+	c #A1BDA8",
"9+	c #9FBDA7",
"0+	c #A5BFAC",
"a+	c #A6C1AD",
"b+	c #E0E8D3",
"c+	c #B3C88A",
"d+	c #417954",
"e+	c #497F57",
"f+	c #498058",
"g+	c #427350",
"h+	c #6A8D73",
"i+	c #71997C",
"j+	c #6F987B",
"k+	c #6F977A",
"l+	c #6E9679",
"m+	c #6D9678",
"n+	c #6C9578",
"o+	c #6B9577",
"p+	c #6B9476",
"q+	c #6A9375",
"r+	c #689374",
"s+	c #689274",
"t+	c #679273",
"u+	c #658F72",
"v+	c #AAC083",
"w+	c #F6F7C9",
"x+	c #96B4A0",
"y+	c #8BAC94",
"z+	c #8EAD96",
"A+	c #92B19A",
"B+	c #98B59F",
"C+	c #9CB8A4",
"D+	c #9DB8A4",
"E+	c #DDE5CF",
"F+	c #B2C588",
"G+	c #3D7450",
"H+	c #457953",
"I+	c #467A53",
"J+	c #3F6E4B",
"K+	c #62866C",
"L+	c #699074",
"M+	c #688F72",
"N+	c #678E72",
"O+	c #668E71",
"P+	c #658D70",
"Q+	c #648D6F",
"R+	c #648C6F",
"S+	c #628B6E",
"T+	c #618B6D",
"U+	c #618A6C",
"V+	c #658D6D",
"W+	c #648C6C",
"X+	c #618A6B",
"Y+	c #A7BC7F",
"Z+	c #F2F3C4",
"`+	c #81A28B",
" @	c #7FA188",
".@	c #84A58C",
"+@	c #89A892",
"@@	c #8EAC96",
"#@	c #94B09B",
"$@	c #93B09A",
"%@	c #D7E1CC",
"&@	c #B3C486",
"*@	c #3F724E",
"=@	c #477751",
"-@	c #467751",
";@	c #447550",
">@	c #3C6948",
",@	c #5B7E65",
"'@	c #61896B",
")@	c #60876A",
"!@	c #5F866A",
"~@	c #5E8668",
"{@	c #5E8568",
"]@	c #5C8567",
"^@	c #5C8466",
"/@	c #5B8365",
"(@	c #588164",
"_@	c #83A075",
":@	c #DEE399",
"<@	c #D8DF95",
"[@	c #DAE096",
"}@	c #EAEB97",
"|@	c #EDF0C3",
"1@	c #789983",
"2@	c #75977D",
"3@	c #7A9B82",
"4@	c #809F88",
"5@	c #85A38C",
"6@	c #8AA791",
"7@	c #89A690",
"8@	c #D2DEC7",
"9@	c #EEEFA2",
"0@	c #D1D98F",
"a@	c #D2DA8D",
"b@	c #D3DB93",
"c@	c #83A06B",
"d@	c #336041",
"e@	c #54765B",
"f@	c #597F63",
"g@	c #587E62",
"h@	c #577E61",
"i@	c #567D60",
"j@	c #557C5F",
"k@	c #547B5E",
"l@	c #537B5D",
"m@	c #527A5B",
"n@	c #638662",
"o@	c #E0E49D",
"p@	c #FFFFEF",
"q@	c #CAD6CB",
"r@	c #C2D0C4",
"s@	c #B5C6B9",
"t@	c #6B8D73",
"u@	c #6B8D74",
"v@	c #719279",
"w@	c #76957E",
"x@	c #7B9A83",
"y@	c #819E88",
"z@	c #829F89",
"A@	c #B3C5B8",
"B@	c #D7E1D9",
"C@	c #DBE3DA",
"D@	c #FAFCF6",
"E@	c #F1F1B3",
"F@	c #6A8B5C",
"G@	c #335D3F",
"H@	c #4C6D54",
"I@	c #52785B",
"J@	c #51765A",
"K@	c #507559",
"L@	c #4F7558",
"M@	c #4E7457",
"N@	c #4D7356",
"O@	c #4B7155",
"P@	c #426B4C",
"Q@	c #396445",
"R@	c #567A51",
"S@	c #E7EAA0",
"T@	c #CCD7C3",
"U@	c #51765B",
"V@	c #547A5D",
"W@	c #5B7F64",
"X@	c #5F8267",
"Y@	c #60856A",
"Z@	c #668A6F",
"`@	c #6D8D74",
" #	c #73927A",
".#	c #789880",
"+#	c #7D9B85",
"@#	c #7E9C84",
"##	c #C3D2C1",
"$#	c #FCFCB5",
"%#	c #6E8D56",
"&#	c #32603E",
"*#	c #335A3C",
"=#	c #44664C",
"-#	c #496D52",
";#	c #486C50",
">#	c #476B4F",
",#	c #456A4D",
"'#	c #43694C",
")#	c #406649",
"!#	c #3B6344",
"~#	c #355D3E",
"{#	c #345C3D",
"]#	c #355E3E",
"^#	c #325B3C",
"/#	c #648256",
"(#	c #F0F0A9",
"_#	c #A9BAA3",
":#	c #496D51",
"<#	c #4E7156",
"[#	c #819385",
"}#	c #AEB0AF",
"|#	c #B0B1B0",
"1#	c #B0B1AF",
"2#	c #B1B1B1",
"3#	c #B4B4B4",
"4#	c #BDBCB8",
"5#	c #AAADAB",
"6#	c #AAADAD",
"7#	c #8C9A8F",
"8#	c #3C5C42",
"9#	c #33553A",
"0#	c #365C3E",
"a#	c #295032",
"b#	c #315739",
"c#	c #33593B",
"d#	c #32573A",
"e#	c #31573A",
"f#	c #315839",
"g#	c #31583A",
"h#	c #2F5538",
"i#	c #658155",
"j#	c #F6F4B2",
"k#	c #AEBDB1",
"l#	c #566C5B",
"m#	c #FBF8FA",
"n#	c #F5F5F5",
"o#	c #F4F4F4",
"p#	c #FDFBFC",
"q#	c #A6ABA7",
"r#	c #2A4B31",
"s#	c #33563B",
"t#	c #ADBBB0",
"u#	c #708975",
"v#	c #3D5E44",
"w#	c #2C5033",
"x#	c #2E5236",
"y#	c #2F5236",
"z#	c #2C5035",
"A#	c #80935E",
"B#	c #F7F6B7",
"C#	c #8F968D",
"D#	c #FFFFFF",
"E#	c #E4E4E4",
"F#	c #D9D9D9",
"G#	c #DBDBDB",
"H#	c #DADADA",
"I#	c #DFDFDF",
"J#	c #F1F1F1",
"K#	c #B7BBB8",
"L#	c #28462E",
"M#	c #2B4D32",
"N#	c #526D57",
"O#	c #8EA092",
"P#	c #D9DFDA",
"Q#	c #97A89B",
"R#	c #294C31",
"S#	c #2B4D31",
"T#	c #2B4C31",
"U#	c #2A4C31",
"V#	c #294A30",
"W#	c #80935F",
"X#	c #B3B496",
"Y#	c #FAFAFB",
"Z#	c #DDDDDD",
"`#	c #DEDEDE",
" $	c #E2E2E2",
".$	c #F0F0F0",
"+$	c #B6B9B6",
"@$	c #244029",
"#$	c #28472E",
"$$	c #667B69",
"%$	c #B2BDB4",
"&$	c #D4DAD5",
"*$	c #798C7C",
"=$	c #27452C",
"-$	c #29472E",
";$	c #2A492E",
">$	c #7D856B",
",$	c #FAFAFC",
"'$	c #E3E3E3",
")$	c #DCDCDC",
"!$	c #E0E0E0",
"~$	c #EEEEEE",
"{$	c #B5B7B5",
"]$	c #213B26",
"^$	c #29452E",
"/$	c #8E9C90",
"($	c #536956",
"_$	c #2C4731",
":$	c #213E26",
"<$	c #24412A",
"[$	c #24412B",
"}$	c #223F26",
"|$	c #536155",
"1$	c #FCFBFC",
"2$	c #D6D6D6",
"3$	c #D7D7D7",
"4$	c #ECECEC",
"5$	c #B2B6B4",
"6$	c #1F3622",
"7$	c #213C26",
"8$	c #17331B",
"9$	c #213B25",
"0$	c #1F3A24",
"a$	c #344C38",
"b$	c #3C533F",
"c$	c #3B523F",
"d$	c #3D5340",
"e$	c #2C4630",
"f$	c #223C26",
"g$	c #1E3A23",
"h$	c #505D51",
"i$	c #F9F8F9",
"j$	c #E8E8E8",
"k$	c #EAEAEA",
"l$	c #E9E9E9",
"m$	c #B2B4B2",
"n$	c #1B311E",
"o$	c #1E3621",
"p$	c #1E3521",
"q$	c #142C16",
"r$	c #7F8C81",
"s$	c #A7AFA7",
"t$	c #A5AEA5",
"u$	c #ACB5AE",
"v$	c #566858",
"w$	c #1B321E",
"x$	c #1B331E",
"y$	c #4E5A50",
"z$	c #C5C5C5",
"A$	c #A4A4A4",
"B$	c #A6A6A6",
"C$	c #B6B6B6",
"D$	c #AFB2B1",
"E$	c #182C1A",
"F$	c #1C311E",
"G$	c #1B311D",
"H$	c #1C321E",
"I$	c #0F2611",
"J$	c #0A220D",
"K$	c #0B230D",
"L$	c #0A210C",
"M$	c #142B17",
"N$	c #182F1A",
"O$	c #4D584F",
"P$	c #F5F3F5",
"Q$	c #E6E6E6",
"R$	c #AFB0AF",
"S$	c #111F12",
"T$	c #122214",
"U$	c #132214",
"V$	c #132215",
"W$	c #122213",
"X$	c #0E1E10",
"Y$	c #4C544D",
"Z$	c #E1E1E1",
"`$	c #B2B3B2",
" %	c #797879",
".%	c #C1C1C1",
"+%	c #A2A2A2",
"@%	c #A9A9A9",
"#%	c #CACACA",
"$%	c #676767",
"%%	c #E7E7E7",
"&%	c #686868",
"*%	c #ABABAB",
"=%	c #B7B7B7",
"-%	c #787878",
";%	c #E5E5E5",
">%	c #B8B8B8",
",%	c #D4D4D4",
"'%	c #D3D3D3",
")%	c #C9C9C9",
"                                                                ",
". + + + + + + + + + + + + + + + + + + + + + + + + + + + + + + . ",
"@ # $ $ $ $ $ $ $ $ $ $ $ $ $ $ % & % % % % % % % % % % % % # @ ",
"  * = - ; > , ' ' ) ! ' ! ~ { { ] ^ ^ ] / ( _ : < [ } [ } | 1   ",
"  2 3 4 5 6 7 8 9 0 a b c d e f f g h i j k l m n o p q r s t   ",
"  u v w x y z A B C D E F G H H I J K L M N O P Q R S T U U V   ",
"  W X Y Z `  ...+.@.#.$.%.&.*.=.-.;.>.,.'.).!.~.{.].^./.(._.:.  ",
"  <.[.}.|.|.1.2.3.4.5.6.7.8.9.0.a.b.c.d.e.e.f.f.g.h.i.j.k.l.m.  ",
"  n.o.p.q.r.s.t.u.v.w.x.y.z.A.B.C.D.E.F.G.H.I.J.K.L.M.N.O.O.P.  ",
"  Q.R.S.T.U.V.W.X.Y.Z.`.`. +.+++@+#+$+%+&+*+=+-+;+>+,+'+)+!+~+  ",
"  {+]+^+/+(+_+:+<+[+}+|+1+2+3+4+5+6+7+7+8+9+0+a+b+c+d+e+e+f+g+  ",
"  h+i+j+k+l+m+n+o+p+q+r+s+t+u+v+w+x+y+z+A+B+C+D+E+F+G+H+H+I+J+  ",
"  K+L+M+N+O+P+Q+R+S+T+U+V+W+X+Y+Z+`+ @.@+@@@#@$@%@&@*@=@-@;@>@  ",
"  ,@'@)@!@~@{@]@^@/@(@_@:@<@[@}@|@1@2@3@4@5@6@7@8@9@0@a@b@c@d@  ",
"  e@f@g@h@i@j@j@k@l@m@n@o@p@q@r@s@t@u@v@w@x@y@z@A@B@C@D@E@F@G@  ",
"  H@I@J@K@L@M@M@N@O@P@Q@R@S@T@U@V@W@X@Y@Z@`@ #.#+#@###$#%#&#*#  ",
"  =#-#;#>#,#'#)#!#~#{#]#^#/#(#_#:#<#[#}#|#1#|#|#2#3#4#5#6#7#8#  ",
"  9#0#a#b#c#d#e#f#g#g#g#g#h#i#j#k#l#m#n#n#n#n#n#n#n#o#n#n#p#q#  ",
"  r#s#t#u#v#w#x#y#y#y#y#y#y#z#A#B#C#D#E#F#G#G#G#G#G#G#H#I#J#K#  ",
"  L#M#N#O#P#Q#R#S#S#S#S#S#T#U#V#W#X#Y#E#Z#`#`#`#`#`#`#Z# $.$+$  ",
"  @$#$$$%$&$*$=$#$#$#$#$#$#$#$-$;$>$,$'$)$Z#Z#Z#Z#Z#Z#Z#!$~${$  ",
"  ]$^$/$($_$:$<$[$[$<$<$<$<$<$<$}$|$1$I#2$3$3$3$3$3$3$3$G#4$5$  ",
"  6$7$8$9$0$a$b$c$d$e$9$f$f$f$f$g$h$i$j$k$k$k$k$k$k$k$k$l$k$m$  ",
"  n$o$p$p$q$r$s$t$u$v$w$p$p$p$p$x$y$i$z$A$B$B$B$B$B$B$B$C$j$D$  ",
"  E$F$G$G$H$I$J$K$L$M$H$G$G$G$G$N$O$P$!$I#!$!$!$!$!$!$!$!$Q$R$  ",
"  S$T$T$T$T$T$U$U$V$T$T$T$W$W$W$X$Y$J#E#k$l$l$l$l$Z$Z$Z$Z$'$`$  ",
"                                   %4$.%+%A$A$A$@%H#I#I#`#!$#%  ",
"                                  $%l$G#F#F#F#F#F#)$)$)$E#%%#%  ",
"                                  &%j$G#G#G#G#G#G#G#G# $*%=%@%  ",
"                                  -%E#F#H#H#H#H#H#H#F#;%>%,%    ",
"                                    =%,%'%'%'%'%'%'%,%)%>%      ",
"                                                                "};
