/* XPM */
static char * guake_indicator_xpm[] = {
"32 32 620 2",
"  	c None",
". 	c #262626",
"+ 	c #3D3D3D",
"@ 	c #3E3E3E",
"# 	c #656E68",
"$ 	c #6E7B72",
"% 	c #6D7B72",
"& 	c #6D7B71",
"* 	c #6C7A71",
"= 	c #6C7A70",
"- 	c #6B7A70",
"; 	c #6B7A6F",
"> 	c #6B796F",
", 	c #6A796F",
"' 	c #6A796E",
") 	c #69796E",
"! 	c #69786E",
"~ 	c #69786D",
"{ 	c #68786D",
"] 	c #68786C",
"^ 	c #5D6A61",
"/ 	c #89A893",
"( 	c #A2CBAF",
"_ 	c #A1CAAD",
": 	c #A0CAAD",
"< 	c #9FC9AD",
"[ 	c #9FC9AB",
"} 	c #9EC8AB",
"| 	c #9DC8AA",
"1 	c #9CC7A9",
"2 	c #9BC7A8",
"3 	c #9AC6A8",
"4 	c #99C6A7",
"5 	c #99C6A6",
"6 	c #98C5A6",
"7 	c #97C5A5",
"8 	c #97C4A4",
"9 	c #96C4A4",
"0 	c #95C4A3",
"a 	c #94C3A2",
"b 	c #93C2A1",
"c 	c #92C2A0",
"d 	c #92C1A0",
"e 	c #91C19F",
"f 	c #90C09F",
"g 	c #90C09E",
"h 	c #8FC09D",
"i 	c #749B80",
"j 	c #82A18B",
"k 	c #9AC3A6",
"l 	c #9AC2A6",
"m 	c #99C2A5",
"n 	c #98C1A4",
"o 	c #98C0A4",
"p 	c #97C0A3",
"q 	c #96BFA3",
"r 	c #95C0A2",
"s 	c #94BFA1",
"t 	c #93BEA0",
"u 	c #92BE9F",
"v 	c #92BD9E",
"w 	c #91BC9E",
"x 	c #90BC9D",
"y 	c #8FBC9C",
"z 	c #8EBB9B",
"A 	c #8DBB9B",
"B 	c #8DBA9A",
"C 	c #8CBA99",
"D 	c #8BB999",
"E 	c #8AB898",
"F 	c #8AB897",
"G 	c #89B897",
"H 	c #88B796",
"I 	c #87B796",
"J 	c #87B795",
"K 	c #6D9378",
"L 	c #7C9C85",
"M 	c #93BCA0",
"N 	c #93BC9F",
"O 	c #92BC9E",
"P 	c #92BB9E",
"Q 	c #91BB9D",
"R 	c #90BA9D",
"S 	c #90BA9B",
"T 	c #8EB99B",
"U 	c #8EB99A",
"V 	c #8DB89A",
"W 	c #8CB899",
"X 	c #8CB798",
"Y 	c #8BB798",
"Z 	c #8AB696",
"` 	c #89B596",
" .	c #88B595",
"..	c #87B495",
"+.	c #87B594",
"@.	c #86B393",
"#.	c #85B393",
"$.	c #85B292",
"%.	c #84B291",
"&.	c #83B291",
"*.	c #81B190",
"=.	c #82B18F",
"-.	c #81B18F",
";.	c #80B08E",
">.	c #80B08D",
",.	c #668C71",
"'.	c #76967F",
").	c #8DB699",
"!.	c #8CB598",
"~.	c #8BB497",
"{.	c #8AB496",
"].	c #89B396",
"^.	c #89B395",
"/.	c #88B294",
"(.	c #87B293",
"_.	c #86B193",
":.	c #86B192",
"<.	c #85B191",
"[.	c #83AF90",
"}.	c #A4C496",
"|.	c #F2F3A8",
"1.	c #F2F3AC",
"2.	c #F1F3AB",
"3.	c #F2F3A9",
"4.	c #BDD397",
"5.	c #7AA988",
"6.	c #7CAB89",
"7.	c #78A886",
"8.	c #6FA37E",
"9.	c #527C5E",
"0.	c #709079",
"a.	c #86AF92",
"b.	c #85AE91",
"c.	c #85AE90",
"d.	c #84AD90",
"e.	c #83AD8F",
"f.	c #82AC8E",
"g.	c #81AB8D",
"h.	c #80AB8C",
"i.	c #7FAA8B",
"j.	c #7EA98A",
"k.	c #7CA889",
"l.	c #AEC892",
"m.	c #FDFDDC",
"n.	c #CEDFD5",
"o.	c #D3E2DA",
"p.	c #D5E2DC",
"q.	c #D7E5DE",
"r.	c #D9E6E0",
"s.	c #DBE7E2",
"t.	c #DDE9E4",
"u.	c #F4F7EF",
"v.	c #C9D88F",
"w.	c #5A916B",
"x.	c #528C62",
"y.	c #4E895E",
"z.	c #4F8A5F",
"A.	c #3E6C4B",
"B.	c #6A8A73",
"C.	c #7FA88A",
"D.	c #7EA78A",
"E.	c #7EA789",
"F.	c #7DA688",
"G.	c #7CA588",
"H.	c #7BA587",
"I.	c #7AA586",
"J.	c #7AA486",
"K.	c #79A385",
"L.	c #78A384",
"M.	c #77A283",
"N.	c #76A282",
"O.	c #75A182",
"P.	c #A9C38E",
"Q.	c #FBFBD7",
"R.	c #AAC4B0",
"S.	c #B0CAB8",
"T.	c #B4CBBA",
"U.	c #B8CFBE",
"V.	c #BAD0BF",
"W.	c #B7CDBD",
"X.	c #B4CCBB",
"Y.	c #E6EEDF",
"Z.	c #C0D187",
"`.	c #49835B",
" +	c #4C865C",
".+	c #3C6848",
"++	c #63836D",
"@+	c #78A083",
"#+	c #77A082",
"$+	c #769F82",
"%+	c #769E81",
"&+	c #749E80",
"*+	c #749D7F",
"=+	c #739D7F",
"-+	c #729C7E",
";+	c #719C7D",
">+	c #719B7C",
",+	c #709A7B",
"'+	c #6F9A7B",
")+	c #6D997A",
"!+	c #A4BE89",
"~+	c #9FBBA7",
"{+	c #A7C2AF",
"]+	c #A5C0AC",
"^+	c #A0BDA8",
"/+	c #A0BCA8",
"(+	c #A6C1AD",
"_+	c #A9C3B1",
":+	c #E4ECDC",
"<+	c #BFCF86",
"[+	c #467D56",
"}+	c #498058",
"|+	c #396445",
"1+	c #5D7C66",
"2+	c #70987C",
"3+	c #70987A",
"4+	c #6F977A",
"5+	c #6E9779",
"6+	c #6D9679",
"7+	c #6D9577",
"8+	c #6C9577",
"9+	c #6A9476",
"0+	c #699374",
"a+	c #689374",
"b+	c #689273",
"c+	c #669172",
"d+	c #A0B984",
"e+	c #FAFAD7",
"f+	c #8EAE96",
"g+	c #8BAC94",
"h+	c #8EAE95",
"i+	c #93B19B",
"j+	c #98B5A0",
"k+	c #9DB9A4",
"l+	c #A1BBA8",
"m+	c #E1E9D9",
"n+	c #BECD84",
"o+	c #437852",
"p+	c #467A54",
"q+	c #375F41",
"r+	c #56755F",
"s+	c #699074",
"t+	c #689073",
"u+	c #678F72",
"v+	c #668E71",
"w+	c #658E71",
"x+	c #658D70",
"y+	c #648C6F",
"z+	c #638C6E",
"A+	c #628B6E",
"B+	c #618A6C",
"C+	c #5E886B",
"D+	c #5C876A",
"E+	c #5B8669",
"F+	c #98B17D",
"G+	c #F8F9D5",
"H+	c #74997D",
"I+	c #7FA188",
"J+	c #85A58C",
"K+	c #89A991",
"L+	c #8FAD97",
"M+	c #94B09B",
"N+	c #97B39E",
"O+	c #DEE6D6",
"P+	c #BBCA82",
"Q+	c #3C704D",
"R+	c #3F724E",
"S+	c #41734F",
"T+	c #345B3E",
"U+	c #506E58",
"V+	c #61886B",
"W+	c #60886B",
"X+	c #60876A",
"Y+	c #5E8669",
"Z+	c #5F8669",
"`+	c #5F896A",
" @	c #5D8567",
".@	c #5B8466",
"+@	c #5A8365",
"@@	c #799970",
"#@	c #D8DE96",
"$@	c #D5DC90",
"%@	c #D4DC8E",
"&@	c #E0E48F",
"*@	c #F4F5D1",
"=@	c #6A8F73",
"-@	c #75987E",
";@	c #7B9C82",
">@	c #80A088",
",@	c #85A38C",
"'@	c #8BA791",
")@	c #8DA995",
"!@	c #D9E2D2",
"~@	c #EDED93",
"{@	c #CED789",
"]@	c #CFD789",
"^@	c #D1DA8E",
"/@	c #87A46D",
"(@	c #30553A",
"_@	c #496751",
":@	c #597F63",
"<@	c #587F62",
"[@	c #587E62",
"}@	c #598163",
"|@	c #243729",
"1@	c #37403A",
"2@	c #243628",
"3@	c #557E5F",
"4@	c #537A5C",
"5@	c #5E8361",
"6@	c #E4E79A",
"7@	c #FFFFF7",
"8@	c #AEC1B3",
"9@	c #B2C4B8",
"0@	c #ACBFB2",
"a@	c #62876B",
"b@	c #6B8E74",
"c@	c #719179",
"d@	c #76967D",
"e@	c #7B9A82",
"f@	c #809E88",
"g@	c #85A18C",
"h@	c #B1C3B6",
"i@	c #CBD7D0",
"j@	c #F4F7F7",
"k@	c #F9F7B0",
"l@	c #65875A",
"m@	c #2E5237",
"n@	c #435F4A",
"o@	c #547B5D",
"p@	c #557C5E",
"q@	c #547D5E",
"r@	c #1E3122",
"s@	c #C2C5CA",
"t@	c #B0B4B7",
"u@	c #C2C6CA",
"v@	c #1C2F20",
"w@	c #487352",
"x@	c #3D6A48",
"y@	c #517850",
"z@	c #EBEC9F",
"A@	c #CFD9CA",
"B@	c #4A7153",
"C@	c #567A5F",
"D@	c #5C7E64",
"E@	c #618369",
"F@	c #67876E",
"G@	c #6C8B74",
"H@	c #719079",
"I@	c #76947E",
"J@	c #7C9883",
"K@	c #819C88",
"L@	c #859F8B",
"M@	c #BBCAC0",
"N@	c #FEFCBA",
"O@	c #749060",
"P@	c #376242",
"Q@	c #2C4E34",
"R@	c #324B38",
"S@	c #272612",
"T@	c #5A4302",
"U@	c #594200",
"V@	c #87888C",
"W@	c #FFFFFF",
"X@	c #575A5D",
"Y@	c #87888B",
"Z@	c #584200",
"`@	c #5A4301",
" #	c #23230E",
".#	c #526E49",
"+#	c #F4F3A8",
"@#	c #BAC8BA",
"##	c #466A4D",
"$#	c #517459",
"%#	c #56785E",
"&#	c #5C7D63",
"*#	c #628168",
"=#	c #67866E",
"-#	c #6D8973",
";#	c #728E78",
">#	c #76927D",
",#	c #A2B5A8",
"'#	c #FFFEC6",
")#	c #869D67",
"!#	c #335C3E",
"~#	c #365D3F",
"{#	c #2A4931",
"]#	c #1E1504",
"^#	c #E1AB24",
"/#	c #E8D194",
"(#	c #CFC4A7",
"_#	c #DADFE4",
":#	c #D8DCE1",
"<#	c #DBDFE3",
"[#	c #DBDFE5",
"}#	c #CFC5A8",
"|#	c #EAD295",
"1#	c #E2AC23",
"2#	c #211F0C",
"3#	c #668357",
"4#	c #FCFAB3",
"5#	c #A2B3A5",
"6#	c #42644A",
"7#	c #4C6D53",
"8#	c #527159",
"9#	c #57765E",
"0#	c #5C7A63",
"a#	c #627F68",
"b#	c #67846E",
"c#	c #889E8D",
"d#	c #FFFFD2",
"e#	c #9BAB6F",
"f#	c #30573A",
"g#	c #32593B",
"h#	c #27452E",
"i#	c #543B00",
"j#	c #EFE5CD",
"k#	c #FAFAFB",
"l#	c #EEEFF0",
"m#	c #E5E7E9",
"n#	c #E3E5E7",
"o#	c #E0E3E5",
"p#	c #DDE0E3",
"q#	c #D9DCDF",
"r#	c #D8DBDF",
"s#	c #D9DEE1",
"t#	c #ECE2CA",
"u#	c #583C00",
"v#	c #305639",
"w#	c #73895A",
"x#	c #FFFFC0",
"y#	c #889D8D",
"z#	c #3E5F45",
"A#	c #46664D",
"B#	c #4C6A53",
"C#	c #526F58",
"D#	c #57745E",
"E#	c #6C8672",
"F#	c #FDFCDA",
"G#	c #AFBA77",
"H#	c #2D5136",
"I#	c #2F5337",
"J#	c #2F5237",
"K#	c #25402B",
"L#	c #533900",
"M#	c #F0E9DA",
"N#	c #CCCCCC",
"O#	c #969797",
"P#	c #959696",
"Q#	c #9C9D9D",
"R#	c #939595",
"S#	c #C4C6C7",
"T#	c #EBEDEF",
"U#	c #E7E9EC",
"V#	c #E1E4E7",
"W#	c #E9E4D5",
"X#	c #573A00",
"Y#	c #2F5235",
"Z#	c #294B31",
"`#	c #849561",
" $	c #FFFFCA",
".$	c #708774",
"+$	c #3A5940",
"@$	c #415F46",
"#$	c #47644C",
"$$	c #526D57",
"%$	c #F4F5DD",
"&$	c #C3C981",
"*$	c #2E4F33",
"=$	c #2C4D32",
"-$	c #223C27",
";$	c #503700",
">$	c #EDE7D9",
",$	c #F8F9F9",
"'$	c #E6E6E7",
")$	c #E7E8E8",
"!$	c #E2E3E4",
"~$	c #F9FAFC",
"{$	c #F2F4F5",
"]$	c #EFF1F3",
"^$	c #E6E8EC",
"/$	c #E8E2D4",
"($	c #543800",
"_$	c #2B4C31",
":$	c #29482E",
"<$	c #26452D",
"[$	c #95A269",
"}$	c #58705D",
"|$	c #35523A",
"1$	c #3A563E",
"2$	c #E4E8D6",
"3$	c #D4D78C",
"4$	c #314E33",
"5$	c #28472E",
"6$	c #28482E",
"7$	c #203824",
"8$	c #4D3500",
"9$	c #EBE5D8",
"0$	c #EFEFEF",
"a$	c #C6C6C6",
"b$	c #C5C5C6",
"c$	c #BDBDBD",
"d$	c #C2C3C4",
"e$	c #C5C5C7",
"f$	c #BBBCBE",
"g$	c #EBECEE",
"h$	c #E7E1D4",
"i$	c #513600",
"j$	c #27452C",
"k$	c #25412A",
"l$	c #25422A",
"m$	c #234029",
"n$	c #A8B071",
"o$	c #FEFCD9",
"p$	c #405943",
"q$	c #CFD5C8",
"r$	c #E4E497",
"s$	c #385134",
"t$	c #1D3321",
"u$	c #4B3300",
"v$	c #E9E3D7",
"w$	c #F5F5F6",
"x$	c #DEDEDE",
"y$	c #DFDFE0",
"z$	c #DCDCDD",
"A$	c #DEDFE0",
"B$	c #D9D9DA",
"C$	c #D6D7D8",
"D$	c #D8D9DA",
"E$	c #E6E1D5",
"F$	c #4E3300",
"G$	c #244028",
"H$	c #223D26",
"I$	c #233D27",
"J$	c #B9BE79",
"K$	c #FFFFE3",
"L$	c #F0EEA4",
"M$	c #425839",
"N$	c #213C26",
"O$	c #1A2F1E",
"P$	c #483001",
"Q$	c #EBEBEB",
"R$	c #BFBFBF",
"S$	c #C3C3C3",
"T$	c #B6B6B7",
"U$	c #AFAFAF",
"V$	c #C2C2C2",
"W$	c #BCBDBE",
"X$	c #CDCECF",
"Y$	c #F4F6F7",
"Z$	c #E3DED3",
"`$	c #4B3100",
" %	c #203A24",
".%	c #1E3622",
"+%	c #253C25",
"@%	c #B1B776",
"#%	c #51633F",
"$%	c #1D3521",
"%%	c #182B1A",
"&%	c #452E02",
"*%	c #E4DFD4",
"=%	c #E0E0E0",
"-%	c #E8E9E9",
";%	c #E3E3E4",
">%	c #FDFEFF",
",%	c #F6F7F8",
"'%	c #E2DDD3",
")%	c #492F01",
"!%	c #1D3320",
"~%	c #1C301E",
"{%	c #182E1C",
"]%	c #1B301D",
"^%	c #162617",
"/%	c #432C03",
"(%	c #E1DDD3",
"_%	c #F0F0F0",
":%	c #B6B6B6",
"<%	c #B9BABA",
"[%	c #BBBCBC",
"}%	c #B6B5B6",
"|%	c #B2B3B3",
"1%	c #F0F1F1",
"2%	c #E0DBD1",
"3%	c #462D02",
"4%	c #152717",
"5%	c #142415",
"6%	c #101D12",
"7%	c #402A04",
"8%	c #DFDBD2",
"9%	c #F7F7F7",
"0%	c #E4E4E4",
"a%	c #DADADA",
"b%	c #FBFBFB",
"c%	c #DEDAD1",
"d%	c #3E2805",
"e%	c #DCD8D1",
"f%	c #F1F1F1",
"g%	c #C8C8C8",
"h%	c #BEBEBE",
"i%	c #C1C1C2",
"j%	c #E2E2E2",
"k%	c #FCFDFD",
"l%	c #DCD7D0",
"m%	c #3B2506",
"n%	c #D9D6D0",
"o%	c #E5E5E5",
"p%	c #DDDDDD",
"q%	c #FEFDFE",
"r%	c #D9D5CF",
"s%	c #392408",
"t%	c #CEC9C2",
"u%	c #100B04",
"v%	c #916A3D",
"w%	c #B9AB9A",
"x%	c #BAAC9C",
"y%	c #916A3C",
"z%	c #0F0B04",
"A%	c #010100",
"B%	c #211507",
"C%	c #201406",
"                                                                ",
"  . . . . . . . . . . . . . . . . . . . . . . . . . . . . . .   ",
"+ @ @ @ @ @ @ @ @ @ @ @ @ @ @ @ @ @ @ @ @ @ @ @ @ @ @ @ @ @ @ + ",
"  # $ $ $ % & & & * = = - = - ; ; > > , ' ' ) ) ! ~ { { { ] ^   ",
"  / ( ( _ : < [ } | | 1 2 3 4 5 6 7 8 9 0 a a b c d e f g h i   ",
"  j k l m n o p q r s s t u v w x x y z A B C D E F G H I J K   ",
"  L M N O P Q R S T U V W X Y Z `  ...+.@.#.$.%.&.*.=.-.;.>.,.  ",
"  '.).!.!.~.{.].^./.(._.:.<.[.}.|.1.2.2.2.2.2.2.3.4.5.6.7.8.9.  ",
"  0.a.b.c.d.e.f.f.g.h.i.i.j.k.l.m.n.o.p.q.r.s.t.u.v.w.x.y.z.A.  ",
"  B.C.D.E.F.G.H.I.J.K.L.M.N.O.P.Q.R.S.T.U.V.W.X.Y.Z.`. + + +.+  ",
"  ++@+#+$+%+&+*+=+-+;+>+,+'+)+!+Q.~+{+]+^+/+(+_+:+<+[+}+}+}+|+  ",
"  1+2+3+4+5+6+7+8+9+9+0+a+b+c+d+e+f+g+h+i+j+k+l+m+n+o+p+p+p+q+  ",
"  r+s+t+u+v+w+x+y+z+A+B+C+D+E+F+G+H+I+J+K+L+M+N+O+P+Q+R+R+S+T+  ",
"  U+V+W+X+Y+Z+`+ @.@+@@@#@$@%@&@*@=@-@;@>@,@'@)@!@~@{@]@^@/@(@  ",
"  _@:@<@[@}@|@1@2@3@4@5@6@7@8@9@0@a@b@c@d@e@f@g@h@i@i@j@k@l@m@  ",
"  n@o@p@q@r@s@t@u@v@w@x@y@z@A@B@C@D@E@F@G@H@I@J@K@L@M@N@O@P@Q@  ",
"  R@S@T@U@V@W@X@W@Y@Z@`@ #.#+#@###$#%#&#*#=#-#;#>#,#'#)#!#~#{#  ",
"  ]#^#/#(#_#:#<#:#[#}#|#1#2#3#4#5#6#7#8#9#0#a#b#c#d#e#f#g#g#h#  ",
"  i#j#k#l#m#n#o#p#q#r#s#t#u#v#w#x#y#z#A#B#C#D#E#F#G#H#I#J#J#K#  ",
"  L#M#N#O#P#Q#R#S#T#U#V#W#X#Y#Z#`# $.$+$@$#$$$%$&$*$=$=$=$=$-$  ",
"  ;$>$,$'$)$!$!$~${$]$^$/$($_$:$<$[$d#}$|$1$2$3$4$5$6$6$6$6$7$  ",
"  8$9$0$a$b$c$d$b$e$f$g$h$i$j$k$l$m$n$o$p$q$r$s$k$k$k$k$k$k$t$  ",
"  u$v$w$x$y$z$A$B$C$D$]$E$F$G$H$H$H$I$J$K$L$M$N$H$H$H$H$H$H$O$  ",
"  P$E$Q$R$S$T$U$V$W$X$Y$Z$`$ %.%.%.%.%+%@%#%$%.%.%.%.%.%.%.%%%  ",
"  &%*%,$=%-%)$;%)$y$>%,%'%)%!%~%~%~%~%~%{%]%~%~%~%~%~%~%~%~%^%  ",
"  /%(%_%:%c$S$<%[%}%|%1%2%3%4%5%5%5%5%5%5%5%5%5%5%5%5%5%5%5%6%  ",
"  7%8%9%0%a%_%W@W@W@W@b%c%7%                                    ",
"  d%e%f%S$g%g%h%R$i%j%k%l%d%                                    ",
"  m%n%9%=%o%p%_%W@W@W@q%r%m%                                    ",
"  s%t%W@W@W@W@W@W@W@W@W@t%s%                                    ",
"  u%v%w%x%x%x%x%x%x%x%w%y%z%                                    ",
"    A%B%C%C%C%C%C%C%C%B%A%                                      "};
